<svg width="30" height="30" viewBox="0 0 30 30" fill="none" xmlns="http://www.w3.org/2000/svg">
<g id="akar-icons:home-alt1">
<g id="Group">
<path id="Vector" d="M26.25 23.75V15.3338C26.25 14.6556 26.112 13.9845 25.8445 13.3613C25.577 12.7381 25.1854 12.1759 24.6937 11.7088L16.7225 4.13751C16.2579 3.69612 15.6415 3.45001 15.0006 3.45001C14.3598 3.45001 13.7434 3.69612 13.2788 4.13751L5.30625 11.7088C4.81457 12.1759 4.42304 12.7381 4.15551 13.3613C3.88797 13.9845 3.75 14.6556 3.75 15.3338V23.75C3.75 24.4131 4.01339 25.0489 4.48223 25.5178C4.95107 25.9866 5.58696 26.25 6.25 26.25H23.75C24.413 26.25 25.0489 25.9866 25.5178 25.5178C25.9866 25.0489 26.25 24.4131 26.25 23.75Z" stroke="#B5D7A8" stroke-width="2" stroke-linecap="round" stroke-linejoin="round"/>
<path id="Vector_2" d="M11.25 18.75C11.25 18.087 11.5134 17.4511 11.9822 16.9822C12.4511 16.5134 13.087 16.25 13.75 16.25H16.25C16.913 16.25 17.5489 16.5134 18.0178 16.9822C18.4866 17.4511 18.75 18.087 18.75 18.75V26.25H11.25V18.75Z" stroke="#B5D7A8" stroke-width="2" stroke-linecap="round" stroke-linejoin="round"/>
</g>
</g>
</svg>
