<svg width="24" height="24" viewBox="0 0 24 24" fill="none" xmlns="http://www.w3.org/2000/svg">
<g id="icon notification" clip-path="url(#clip0_287_558)">
<g id="Group">
<path id="Vector" d="M17.0243 21.6842C17.0245 22.2685 16.8006 22.8312 16.3976 23.2596C15.9945 23.688 15.4421 23.9504 14.851 23.9942L14.6748 24H12.3254C11.7326 24.0002 11.1617 23.7795 10.7271 23.3823C10.2925 22.985 10.0262 22.4405 9.98178 21.8579L9.97591 21.6842H17.0243ZM13.5001 2C15.6322 1.99997 17.681 2.81619 19.2142 4.27651C20.7475 5.73682 21.6454 7.72705 21.7185 9.82737L21.7232 10.1053V14.4636L23.8635 18.6829C23.9569 18.8671 24.0037 19.0707 23.9998 19.2765C23.9959 19.4823 23.9414 19.6841 23.841 19.8647C23.7407 20.0452 23.5974 20.1991 23.4236 20.3131C23.2497 20.4271 23.0504 20.4979 22.8427 20.5194L22.7076 20.5263H4.29258C4.08367 20.5264 3.87786 20.4765 3.69279 20.381C3.50772 20.2855 3.3489 20.1472 3.22994 19.9779C3.11099 19.8086 3.03544 19.6134 3.00978 19.4091C2.98413 19.2047 3.00911 18.9973 3.08261 18.8045L3.13665 18.6829L5.277 14.4636V10.1053C5.277 7.95561 6.14336 5.89401 7.68549 4.37398C9.22762 2.85394 11.3192 2 13.5001 2Z" fill="#CDCFCE"/>
</g>
</g>
<defs>
<clipPath id="clip0_287_558">
<rect width="24" height="24" fill="white"/>
</clipPath>
</defs>
</svg>
