<svg width="20" height="19" viewBox="0 0 20 19" fill="none" xmlns="http://www.w3.org/2000/svg">
<g id="&#240;&#159;&#166;&#134; icon &#34;History&#34;">
<path id="Vector" d="M19.5 9.48205C19.5097 14.7163 15.2411 18.9963 10.0069 19C7.74625 19.0016 5.66973 18.2136 4.03791 16.8965C3.61359 16.5541 3.58187 15.9182 3.96747 15.5326L4.39907 15.101C4.72885 14.7712 5.25533 14.7351 5.6207 15.025C6.82295 15.979 8.34445 16.5484 10 16.5484C13.896 16.5484 17.0484 13.3954 17.0484 9.50002C17.0484 5.60405 13.8954 2.45162 10 2.45162C8.13012 2.45162 6.4318 3.17825 5.17079 4.36434L7.115 6.30855C7.50113 6.69468 7.22766 7.35485 6.68164 7.35485H1.1129C0.77439 7.35485 0.5 7.08046 0.5 6.74195V1.17321C0.5 0.627193 1.16017 0.353722 1.5463 0.739814L3.43757 2.63108C5.1431 1.00118 7.45463 0 10 0C15.2407 0 19.4903 4.2436 19.5 9.48205ZM12.5699 12.5L12.9462 12.0162C13.2579 11.6154 13.1857 11.0378 12.7849 10.7261L11.2258 9.51339V5.51614C11.2258 5.00839 10.8142 4.59678 10.3065 4.59678H9.69357C9.18581 4.59678 8.77421 5.00839 8.77421 5.51614V10.7125L11.2798 12.6613C11.6806 12.973 12.2582 12.9008 12.5699 12.5Z" fill="white"/>
</g>
</svg>
