<svg width="23" height="26" viewBox="0 0 23 26" fill="none" xmlns="http://www.w3.org/2000/svg">
<g id="user 1">
<path id="Vector" d="M11.3362 12.1936C12.8582 12.1936 14.1761 11.6294 15.2531 10.5162C16.3299 9.40322 16.8759 8.04138 16.8759 6.46807C16.8759 4.89531 16.33 3.53328 15.253 2.41991C14.1759 1.30707 12.8581 0.742859 11.3362 0.742859C9.81391 0.742859 8.49626 1.30707 7.41936 2.42009C6.34247 3.5331 5.79639 4.89513 5.79639 6.46807C5.79639 8.04138 6.34247 9.4034 7.41936 10.5164C8.49661 11.6293 9.81444 12.1936 11.3362 12.1936ZM8.37255 3.40506C9.19887 2.55103 10.1682 2.1359 11.3362 2.1359C12.504 2.1359 13.4735 2.55103 14.3 3.40506C15.1263 4.25927 15.5281 5.26129 15.5281 6.46807C15.5281 7.67521 15.1263 8.67705 14.3 9.53126C13.4735 10.3855 12.504 10.8006 11.3362 10.8006C10.1685 10.8006 9.19922 10.3853 8.37255 9.53126C7.54606 8.67723 7.14422 7.67521 7.14422 6.46807C7.14422 5.26129 7.54606 4.25927 8.37255 3.40506Z" fill="#CDCFCE" stroke="#CDCFCE" stroke-width="0.6"/>
<path id="Vector_2" d="M21.0292 19.7648C20.9982 19.3016 20.9353 18.7963 20.8429 18.2627C20.7495 17.7252 20.6293 17.217 20.4854 16.7525C20.3366 16.2725 20.1347 15.7984 19.8846 15.3441C19.6254 14.8726 19.3208 14.462 18.979 14.1241C18.6215 13.7706 18.1839 13.4864 17.6778 13.2791C17.1735 13.0729 16.6146 12.9684 16.0168 12.9684C15.782 12.9684 15.5549 13.068 15.1164 13.3631C14.8465 13.545 14.5308 13.7554 14.1785 13.9881C13.8772 14.1865 13.469 14.3724 12.9649 14.5407C12.473 14.7052 11.9736 14.7886 11.4805 14.7886C10.9878 14.7886 10.4884 14.7052 9.99617 14.5407C9.49255 14.3725 9.08422 14.1866 8.78345 13.9882C8.43443 13.7577 8.11858 13.5473 7.84466 13.3629C7.40649 13.0678 7.17943 12.9683 6.94464 12.9683C6.34662 12.9683 5.7879 13.0729 5.28376 13.2793C4.77804 13.4862 4.34023 13.7704 3.98243 14.1243C3.6406 14.4623 3.33598 14.8727 3.07697 15.3441C2.82727 15.7984 2.62512 16.2723 2.47632 16.7527C2.3326 17.2172 2.2124 17.7252 2.11905 18.2627C2.0264 18.7956 1.96375 19.301 1.93269 19.7653C1.90216 20.2193 1.88672 20.6917 1.88672 21.1691C1.88672 22.4099 2.26838 23.4145 3.021 24.1554C3.76431 24.8864 4.74768 25.2571 5.9439 25.2571H17.0185C18.2144 25.2571 19.1978 24.8864 19.9413 24.1554C20.6941 23.415 21.0757 22.4101 21.0757 21.1689C21.0756 20.6899 21.0599 20.2175 21.0292 19.7648ZM19.012 23.1461C18.5208 23.6292 17.8687 23.8641 17.0184 23.8641H5.9439C5.09337 23.8641 4.4413 23.6292 3.95032 23.1463C3.46864 22.6724 3.23455 22.0254 3.23455 21.1691C3.23455 20.7236 3.24876 20.2838 3.27719 19.8616C3.30492 19.4474 3.3616 18.9924 3.44565 18.5088C3.52865 18.0313 3.63428 17.5832 3.75993 17.1775C3.88048 16.7885 4.0449 16.4032 4.2488 16.0322C4.44341 15.6785 4.66731 15.3751 4.91438 15.1306C5.14548 14.9019 5.43678 14.7148 5.78001 14.5744C6.09744 14.4445 6.45419 14.3734 6.84146 14.3627C6.88866 14.3887 6.97272 14.4382 7.10889 14.53C7.38596 14.7166 7.70533 14.9295 8.05839 15.1626C8.45637 15.4248 8.96911 15.6617 9.5817 15.8661C10.208 16.0753 10.8467 16.1816 11.4807 16.1816C12.1147 16.1816 12.7536 16.0753 13.3795 15.8662C13.9926 15.6615 14.5052 15.4248 14.9037 15.1622C15.265 14.9235 15.5754 14.7168 15.8525 14.53C15.9887 14.4384 16.0727 14.3887 16.1199 14.3627C16.5074 14.3734 16.8641 14.4445 17.1817 14.5744C17.5248 14.7148 17.8161 14.9021 18.0472 15.1306C18.2943 15.3749 18.5182 15.6783 18.7128 16.0324C18.9168 16.4032 19.0814 16.7886 19.2018 17.1773C19.3276 17.5835 19.4334 18.0315 19.5163 18.5087C19.6002 18.9931 19.657 19.4483 19.6847 19.8618V19.8622C19.7133 20.2827 19.7277 20.7224 19.7279 21.1691C19.7277 22.0256 19.4936 22.6724 19.012 23.1461Z" fill="#CDCFCE" stroke="#CDCFCE" stroke-width="0.6"/>
</g>
</svg>
